<svg xmlns="http://www.w3.org/2000/svg" viewBox="0 0 512 512">
  <defs>
    <linearGradient id="bg" x1="0" y1="0" x2="1" y2="1">
      <stop offset="0%" stop-color="#1e3a5f"/>
      <stop offset="100%" stop-color="#0f172a"/>
    </linearGradient>
    <linearGradient id="j" x1="0" y1="0" x2="0" y2="1">
      <stop offset="0%" stop-color="#60a5fa"/>
      <stop offset="100%" stop-color="#3b82f6"/>
    </linearGradient>
    <linearGradient id="pipe" x1="0" y1="0" x2="1" y2="0">
      <stop offset="0%" stop-color="#22c55e"/>
      <stop offset="50%" stop-color="#3b82f6"/>
      <stop offset="100%" stop-color="#22c55e"/>
    </linearGradient>
  </defs>
  <!-- Rounded square background -->
  <rect x="16" y="16" width="480" height="480" rx="96" ry="96" fill="url(#bg)"/>
  <!-- Subtle inner border -->
  <rect x="24" y="24" width="464" height="464" rx="88" ry="88" fill="none" stroke="#334155" stroke-width="2" opacity="0.5"/>
  <!-- Letter J -->
  <path d="
    M 190 120
    L 340 120
    L 340 168
    L 288 168
    L 288 310
    Q 288 370 248 390
    Q 208 410 168 390
    Q 128 370 128 310
    L 128 280
    L 192 280
    L 192 305
    Q 192 335 215 345
    Q 238 355 238 325
    L 238 168
    L 190 168
    Z
  " fill="url(#j)"/>
  <!-- Pipeline bar (3 connected dots) -->
  <line x1="130" y1="430" x2="382" y2="430" stroke="url(#pipe)" stroke-width="6" stroke-linecap="round"/>
  <circle cx="150" cy="430" r="12" fill="#22c55e"/>
  <circle cx="256" cy="430" r="12" fill="#3b82f6"/>
  <circle cx="362" cy="430" r="12" fill="#22c55e"/>
</svg>
